<svg width="680" viewBox="0 0 680 720" xmlns="http://www.w3.org/2000/svg" style="background:#fff">
<defs>
  <marker id="arrow" viewBox="0 0 10 10" refX="8" refY="5" markerWidth="6" markerHeight="6" orient="auto-start-reverse">
    <path d="M2 1L8 5L2 9" fill="none" stroke="context-stroke" stroke-width="1.5" stroke-linecap="round" stroke-linejoin="round"/>
  </marker>
</defs>
<style>
  .th { font-family: 'Helvetica Neue', Arial, sans-serif; font-size: 14px; font-weight: 600; }
  .ts { font-family: 'Helvetica Neue', Arial, sans-serif; font-size: 12px; font-weight: 400; }
  .tl { font-family: 'Helvetica Neue', Arial, sans-serif; font-size: 13px; font-weight: 500; }
</style>

<!-- ═══════════ PHASE 1: PRE ═══════════ -->
<text class="th" x="40" y="26" fill="#0F6E56">① Pre brisanja: ključ 30 je u unutrašnjem čvoru</text>

<!-- Root node: [15 | 30 | 60] -->
<rect x="196" y="50" width="288" height="40" rx="6" fill="#F1EFE8" stroke="#B4B2A9" stroke-width="0.5"/>
<line x1="292" y1="50" x2="292" y2="90" stroke="#B4B2A9" stroke-width="0.5"/>
<line x1="388" y1="50" x2="388" y2="90" stroke="#B4B2A9" stroke-width="0.5"/>
<text class="th" x="244" y="70" text-anchor="middle" dominant-baseline="central" fill="#444441">15</text>
<text class="th" x="436" y="70" text-anchor="middle" dominant-baseline="central" fill="#444441">60</text>

<!-- 30 highlighted in coral -->
<rect x="292" y="50" width="96" height="40" rx="0" fill="#FAECE7" stroke="#D85A30" stroke-width="1.5"/>
<text class="th" x="340" y="70" text-anchor="middle" dominant-baseline="central" fill="#712B13">30</text>
<text class="ts" x="340" y="44" text-anchor="middle" fill="#993C1D">briši me</text>

<!-- Arrows root → children -->
<line x1="244" y1="90" x2="130" y2="140" stroke="#888780" stroke-width="0.5" marker-end="url(#arrow)"/>
<line x1="340" y1="90" x2="340" y2="140" stroke="#888780" stroke-width="0.5" marker-end="url(#arrow)"/>
<line x1="436" y1="90" x2="550" y2="140" stroke="#888780" stroke-width="0.5" marker-end="url(#arrow)"/>

<!-- Left child: [5 | 10] -->
<rect x="68" y="146" width="96" height="36" rx="6" fill="#E1F5EE" stroke="#5DCAA5" stroke-width="0.5"/>
<line x1="116" y1="146" x2="116" y2="182" stroke="#5DCAA5" stroke-width="0.5"/>
<text class="th" x="92" y="164" text-anchor="middle" dominant-baseline="central" fill="#085041">5</text>
<text class="th" x="140" y="164" text-anchor="middle" dominant-baseline="central" fill="#085041">10</text>

<!-- Middle child: [20 | 25] -->
<rect x="284" y="146" width="96" height="36" rx="6" fill="#E1F5EE" stroke="#5DCAA5" stroke-width="0.5"/>
<line x1="332" y1="146" x2="332" y2="182" stroke="#5DCAA5" stroke-width="0.5"/>
<text class="th" x="308" y="164" text-anchor="middle" dominant-baseline="central" fill="#085041">20</text>
<text class="th" x="356" y="164" text-anchor="middle" dominant-baseline="central" fill="#085041">25</text>

<!-- Right child: [35 | 40 | 50] -->
<rect x="490" y="146" width="144" height="36" rx="6" fill="#E1F5EE" stroke="#5DCAA5" stroke-width="0.5"/>
<line x1="538" y1="146" x2="538" y2="182" stroke="#5DCAA5" stroke-width="0.5"/>
<line x1="586" y1="146" x2="586" y2="182" stroke="#5DCAA5" stroke-width="0.5"/>
<text class="th" x="514" y="164" text-anchor="middle" dominant-baseline="central" fill="#085041">35</text>
<text class="th" x="562" y="164" text-anchor="middle" dominant-baseline="central" fill="#085041">40</text>
<text class="th" x="610" y="164" text-anchor="middle" dominant-baseline="central" fill="#085041">50</text>

<!-- 35 highlighted as successor -->
<rect x="490" y="146" width="48" height="36" rx="0" fill="none" stroke="#BA7517" stroke-width="1.5" stroke-dasharray="3 2"/>
<text class="ts" x="514" y="196" text-anchor="middle" fill="#854F0B">naslednik (prva veća</text>
<text class="ts" x="514" y="210" text-anchor="middle" fill="#854F0B">vrednost od 30)</text>

<!-- Dashed region around right subtree -->
<rect x="282" y="138" width="360" height="52" rx="10" fill="none" stroke="#0F6E56" stroke-width="0.5" stroke-dasharray="4 3" opacity="0.5"/>
<text class="ts" x="462" y="133" text-anchor="middle" fill="#0F6E56">desno podstablo čvora sa ključem 30</text>

<!-- Curved arrow from 30 to 35 showing "find successor" -->
<path d="M388 70 Q450 50 480 80 Q510 110 514 140" fill="none" stroke="#BA7517" stroke-width="1.5" stroke-dasharray="5 3" marker-end="url(#arrow)"/>
<text class="tl" x="476" y="68" text-anchor="start" fill="#854F0B">traži krajnji</text>
<text class="tl" x="476" y="82" text-anchor="start" fill="#854F0B">levi element</text>

<!-- ═══════════ Divider ═══════════ -->
<line x1="40" y1="240" x2="640" y2="240" stroke="#B4B2A9" stroke-width="0.5" stroke-dasharray="3 3" opacity="0.4"/>

<!-- ═══════════ PHASE 2: SWAP ═══════════ -->
<text class="th" x="40" y="264" fill="#854F0B">② Zamena: kopiraj 35 na mesto 30</text>

<!-- Root node: [15 | 35 | 60] - 35 highlighted amber -->
<rect x="196" y="286" width="288" height="40" rx="6" fill="#F1EFE8" stroke="#B4B2A9" stroke-width="0.5"/>
<line x1="292" y1="286" x2="292" y2="326" stroke="#B4B2A9" stroke-width="0.5"/>
<line x1="388" y1="286" x2="388" y2="326" stroke="#B4B2A9" stroke-width="0.5"/>
<text class="th" x="244" y="306" text-anchor="middle" dominant-baseline="central" fill="#444441">15</text>
<text class="th" x="436" y="306" text-anchor="middle" dominant-baseline="central" fill="#444441">60</text>

<!-- 35 amber in root -->
<rect x="292" y="286" width="96" height="40" rx="0" fill="#FAEEDA" stroke="#EF9F27" stroke-width="1.5"/>
<text class="th" x="340" y="306" text-anchor="middle" dominant-baseline="central" fill="#633806">35</text>
<text class="ts" x="340" y="280" text-anchor="middle" fill="#854F0B">zamenjeno!</text>

<!-- Arrows root → children -->
<line x1="244" y1="326" x2="130" y2="376" stroke="#888780" stroke-width="0.5" marker-end="url(#arrow)"/>
<line x1="340" y1="326" x2="340" y2="376" stroke="#888780" stroke-width="0.5" marker-end="url(#arrow)"/>
<line x1="436" y1="326" x2="550" y2="376" stroke="#888780" stroke-width="0.5" marker-end="url(#arrow)"/>

<!-- Left child: [5 | 10] -->
<rect x="68" y="382" width="96" height="36" rx="6" fill="#E1F5EE" stroke="#5DCAA5" stroke-width="0.5"/>
<line x1="116" y1="382" x2="116" y2="418" stroke="#5DCAA5" stroke-width="0.5"/>
<text class="th" x="92" y="400" text-anchor="middle" dominant-baseline="central" fill="#085041">5</text>
<text class="th" x="140" y="400" text-anchor="middle" dominant-baseline="central" fill="#085041">10</text>

<!-- Middle child: [20 | 25] -->
<rect x="284" y="382" width="96" height="36" rx="6" fill="#E1F5EE" stroke="#5DCAA5" stroke-width="0.5"/>
<line x1="332" y1="382" x2="332" y2="418" stroke="#5DCAA5" stroke-width="0.5"/>
<text class="th" x="308" y="400" text-anchor="middle" dominant-baseline="central" fill="#085041">20</text>
<text class="th" x="356" y="400" text-anchor="middle" dominant-baseline="central" fill="#085041">25</text>

<!-- Right child: [35̶ | 40 | 50] - 35 crossed out in coral -->
<rect x="490" y="382" width="144" height="36" rx="6" fill="#E1F5EE" stroke="#5DCAA5" stroke-width="0.5"/>
<line x1="538" y1="382" x2="538" y2="418" stroke="#5DCAA5" stroke-width="0.5"/>
<line x1="586" y1="382" x2="586" y2="418" stroke="#5DCAA5" stroke-width="0.5"/>
<text class="th" x="562" y="400" text-anchor="middle" dominant-baseline="central" fill="#085041">40</text>
<text class="th" x="610" y="400" text-anchor="middle" dominant-baseline="central" fill="#085041">50</text>

<!-- 35 crossed out -->
<rect x="490" y="382" width="48" height="36" rx="0" fill="#FCEBEB" stroke="#E24B4A" stroke-width="1"/>
<text class="th" x="514" y="400" text-anchor="middle" dominant-baseline="central" fill="#791F1F">35</text>
<line x1="494" y1="386" x2="534" y2="414" stroke="#E24B4A" stroke-width="1.5"/>
<line x1="534" y1="386" x2="494" y2="414" stroke="#E24B4A" stroke-width="1.5"/>
<text class="ts" x="514" y="432" text-anchor="middle" fill="#A32D2D">obriši iz lista</text>
<text class="ts" x="514" y="446" text-anchor="middle" fill="#888780">→ slučaj A</text>

<!-- ═══════════ Divider ═══════════ -->
<line x1="40" y1="472" x2="640" y2="472" stroke="#B4B2A9" stroke-width="0.5" stroke-dasharray="3 3" opacity="0.4"/>

<!-- ═══════════ PHASE 3: FINAL ═══════════ -->
<text class="th" x="40" y="496" fill="#534AB7">③ Konačno stanje</text>

<!-- Root node: [15 | 35 | 60] -->
<rect x="196" y="518" width="288" height="40" rx="6" fill="#F1EFE8" stroke="#B4B2A9" stroke-width="0.5"/>
<line x1="292" y1="518" x2="292" y2="558" stroke="#B4B2A9" stroke-width="0.5"/>
<line x1="388" y1="518" x2="388" y2="558" stroke="#B4B2A9" stroke-width="0.5"/>
<text class="th" x="244" y="538" text-anchor="middle" dominant-baseline="central" fill="#444441">15</text>
<text class="th" x="340" y="538" text-anchor="middle" dominant-baseline="central" fill="#444441">35</text>
<text class="th" x="436" y="538" text-anchor="middle" dominant-baseline="central" fill="#444441">60</text>

<!-- Arrows root → children -->
<line x1="244" y1="558" x2="130" y2="608" stroke="#888780" stroke-width="0.5" marker-end="url(#arrow)"/>
<line x1="340" y1="558" x2="340" y2="608" stroke="#888780" stroke-width="0.5" marker-end="url(#arrow)"/>
<line x1="436" y1="558" x2="530" y2="608" stroke="#888780" stroke-width="0.5" marker-end="url(#arrow)"/>

<!-- Left child: [5 | 10] -->
<rect x="68" y="614" width="96" height="36" rx="6" fill="#E1F5EE" stroke="#5DCAA5" stroke-width="0.5"/>
<line x1="116" y1="614" x2="116" y2="650" stroke="#5DCAA5" stroke-width="0.5"/>
<text class="th" x="92" y="632" text-anchor="middle" dominant-baseline="central" fill="#085041">5</text>
<text class="th" x="140" y="632" text-anchor="middle" dominant-baseline="central" fill="#085041">10</text>

<!-- Middle child: [20 | 25] -->
<rect x="284" y="614" width="96" height="36" rx="6" fill="#E1F5EE" stroke="#5DCAA5" stroke-width="0.5"/>
<line x1="332" y1="614" x2="332" y2="650" stroke="#5DCAA5" stroke-width="0.5"/>
<text class="th" x="308" y="632" text-anchor="middle" dominant-baseline="central" fill="#085041">20</text>
<text class="th" x="356" y="632" text-anchor="middle" dominant-baseline="central" fill="#085041">25</text>

<!-- Right child: [40 | 50] - only 2 elements now -->
<rect x="484" y="614" width="96" height="36" rx="6" fill="#E1F5EE" stroke="#5DCAA5" stroke-width="0.5"/>
<line x1="532" y1="614" x2="532" y2="650" stroke="#5DCAA5" stroke-width="0.5"/>
<text class="th" x="508" y="632" text-anchor="middle" dominant-baseline="central" fill="#085041">40</text>
<text class="th" x="556" y="632" text-anchor="middle" dominant-baseline="central" fill="#085041">50</text>

<!-- Verification annotations -->
<text class="ts" x="340" y="680" text-anchor="middle" fill="#888780">B-stablo svojstvo očuvano: {5,10} &lt; 15 &lt; {20,25} &lt; 35 &lt; {40,50} &lt; 60</text>
<text class="ts" x="340" y="696" text-anchor="middle" fill="#888780">Brisanje iz unutrašnjeg čvora se svodi na brisanje iz lista (slučaj A)</text>

</svg>