<svg width="680" viewBox="0 0 680 1300" xmlns="http://www.w3.org/2000/svg" style="background:#fff">
<defs>
  <marker id="arrow" viewBox="0 0 10 10" refX="8" refY="5" markerWidth="6" markerHeight="6" orient="auto-start-reverse">
    <path d="M2 1L8 5L2 9" fill="none" stroke="context-stroke" stroke-width="1.5" stroke-linecap="round" stroke-linejoin="round"/>
  </marker>
</defs>
<style>
  .th { font-family: 'Helvetica Neue', Arial, sans-serif; font-size: 14px; font-weight: 600; }
  .ts { font-family: 'Helvetica Neue', Arial, sans-serif; font-size: 12px; font-weight: 400; }
</style>

<!-- ═══════════════════════════════════════════ -->
<!-- STEP 1: BEFORE                              -->
<!-- ═══════════════════════════════════════════ -->
<text class="th" x="40" y="30" fill="#0F6E56">① Polazno stanje (r = 2, max = 2r = 4)</text>
<text class="ts" x="40" y="50" fill="#888780">Treba umetnuti ključ 25. Ce je pun, a i desni sused Cf je pun → prelivanje nije moguće!</text>

<!-- Parent C -->
<text class="ts" x="340" y="80" text-anchor="middle" fill="#5F5E5A">nadređeni čvor C</text>
<rect x="184" y="90" width="312" height="40" rx="6" fill="#F1EFE8" stroke="#B4B2A9" stroke-width="0.5"/>
<line x1="262" y1="90" x2="262" y2="130" stroke="#B4B2A9" stroke-width="0.5"/>
<line x1="340" y1="90" x2="340" y2="130" stroke="#B4B2A9" stroke-width="0.5"/>
<line x1="418" y1="90" x2="418" y2="130" stroke="#B4B2A9" stroke-width="0.5"/>
<text class="th" x="223" y="110" text-anchor="middle" dominant-baseline="central" fill="#444441">...</text>
<text class="th" x="301" y="110" text-anchor="middle" dominant-baseline="central" fill="#444441">50</text>
<text class="th" x="379" y="110" text-anchor="middle" dominant-baseline="central" fill="#444441">...</text>
<text class="th" x="457" y="110" text-anchor="middle" dominant-baseline="central" fill="#444441">...</text>

<!-- Edges -->
<line x1="262" y1="130" x2="156" y2="180" stroke="#888780" stroke-width="0.5" marker-end="url(#arrow)"/>
<line x1="340" y1="130" x2="468" y2="180" stroke="#888780" stroke-width="0.5" marker-end="url(#arrow)"/>

<!-- Ce: [10|20|30|40] FULL -->
<rect x="60" y="186" width="192" height="38" rx="6" fill="#E1F5EE" stroke="#5DCAA5" stroke-width="0.5"/>
<line x1="108" y1="186" x2="108" y2="224" stroke="#5DCAA5" stroke-width="0.5"/>
<line x1="156" y1="186" x2="156" y2="224" stroke="#5DCAA5" stroke-width="0.5"/>
<line x1="204" y1="186" x2="204" y2="224" stroke="#5DCAA5" stroke-width="0.5"/>
<text class="th" x="84" y="205" text-anchor="middle" dominant-baseline="central" fill="#085041">10</text>
<text class="th" x="132" y="205" text-anchor="middle" dominant-baseline="central" fill="#085041">20</text>
<text class="th" x="180" y="205" text-anchor="middle" dominant-baseline="central" fill="#085041">30</text>
<text class="th" x="228" y="205" text-anchor="middle" dominant-baseline="central" fill="#085041">40</text>
<text class="ts" x="156" y="240" text-anchor="middle" fill="#993C1D">Ce: m = 2r = 4 (pun!)</text>

<!-- New element 25 -->
<rect x="274" y="186" width="44" height="38" rx="6" fill="#FAECE7" stroke="#D85A30" stroke-width="0.5"/>
<text class="th" x="296" y="205" text-anchor="middle" dominant-baseline="central" fill="#712B13">25</text>
<text class="ts" x="296" y="178" text-anchor="middle" fill="#993C1D">novi</text>
<line x1="272" y1="205" x2="256" y2="205" stroke="#D85A30" stroke-width="1.2" marker-end="url(#arrow)" stroke-dasharray="4 3"/>

<!-- Cf: [60|70|80|90] FULL -->
<rect x="420" y="186" width="192" height="38" rx="6" fill="#E1F5EE" stroke="#5DCAA5" stroke-width="0.5"/>
<line x1="468" y1="186" x2="468" y2="224" stroke="#5DCAA5" stroke-width="0.5"/>
<line x1="516" y1="186" x2="516" y2="224" stroke="#5DCAA5" stroke-width="0.5"/>
<line x1="564" y1="186" x2="564" y2="224" stroke="#5DCAA5" stroke-width="0.5"/>
<text class="th" x="444" y="205" text-anchor="middle" dominant-baseline="central" fill="#085041">60</text>
<text class="th" x="492" y="205" text-anchor="middle" dominant-baseline="central" fill="#085041">70</text>
<text class="th" x="540" y="205" text-anchor="middle" dominant-baseline="central" fill="#085041">80</text>
<text class="th" x="588" y="205" text-anchor="middle" dominant-baseline="central" fill="#085041">90</text>
<text class="ts" x="516" y="240" text-anchor="middle" fill="#993C1D">Cf: m = 2r = 4 (pun!)</text>

<!-- ═══════════ Divider ═══════════ -->
<line x1="40" y1="272" x2="640" y2="272" stroke="#B4B2A9" stroke-width="0.5" stroke-dasharray="3 3" opacity="0.3"/>

<!-- ═══════════════════════════════════════════ -->
<!-- STEP 2: FORM SORTED ARRAY                   -->
<!-- ═══════════════════════════════════════════ -->
<text class="th" x="40" y="300" fill="#854F0B">② Formiranje uređenog niza u memoriji (4r + 2 = 10 elemenata)</text>
<text class="ts" x="40" y="320" fill="#888780">Niz = (Ce + novi element) + nadređeni element (50) + Cf</text>

<!-- Source labels -->
<text class="ts" x="188" y="352" text-anchor="middle" fill="#0F6E56">Ce + novi (2r+1 = 5)</text>
<text class="ts" x="332" y="352" text-anchor="middle" fill="#854F0B">iz C</text>
<text class="ts" x="476" y="352" text-anchor="middle" fill="#0F6E56">Cf (2r = 4)</text>

<!-- Source brackets -->
<line x1="68" y1="358" x2="308" y2="358" stroke="#0F6E56" stroke-width="0.8"/>
<line x1="68" y1="355" x2="68" y2="361" stroke="#0F6E56" stroke-width="0.8"/>
<line x1="308" y1="355" x2="308" y2="361" stroke="#0F6E56" stroke-width="0.8"/>

<line x1="308" y1="358" x2="356" y2="358" stroke="#854F0B" stroke-width="0.8"/>
<line x1="308" y1="355" x2="308" y2="361" stroke="#854F0B" stroke-width="0.8"/>
<line x1="356" y1="355" x2="356" y2="361" stroke="#854F0B" stroke-width="0.8"/>

<line x1="356" y1="358" x2="596" y2="358" stroke="#0F6E56" stroke-width="0.8"/>
<line x1="356" y1="355" x2="356" y2="361" stroke="#0F6E56" stroke-width="0.8"/>
<line x1="596" y1="355" x2="596" y2="361" stroke="#0F6E56" stroke-width="0.8"/>

<!-- Full sorted array [10|20|25|30|40|50|60|70|80|90] -->
<rect x="68" y="366" width="528" height="40" rx="6" fill="#FAEEDA" stroke="#EF9F27" stroke-width="0.5"/>
<line x1="116" y1="366" x2="116" y2="406" stroke="#EF9F27" stroke-width="0.5"/>
<line x1="164" y1="366" x2="164" y2="406" stroke="#EF9F27" stroke-width="0.5"/>
<line x1="212" y1="366" x2="212" y2="406" stroke="#EF9F27" stroke-width="0.5"/>
<line x1="260" y1="366" x2="260" y2="406" stroke="#EF9F27" stroke-width="0.5"/>
<line x1="308" y1="366" x2="308" y2="406" stroke="#EF9F27" stroke-width="0.5"/>
<line x1="356" y1="366" x2="356" y2="406" stroke="#EF9F27" stroke-width="0.5"/>
<line x1="404" y1="366" x2="404" y2="406" stroke="#EF9F27" stroke-width="0.5"/>
<line x1="452" y1="366" x2="452" y2="406" stroke="#EF9F27" stroke-width="0.5"/>
<line x1="500" y1="366" x2="500" y2="406" stroke="#EF9F27" stroke-width="0.5"/>
<text class="th" x="92" y="386" text-anchor="middle" dominant-baseline="central" fill="#633806">10</text>
<text class="th" x="140" y="386" text-anchor="middle" dominant-baseline="central" fill="#633806">20</text>
<text class="th" x="188" y="386" text-anchor="middle" dominant-baseline="central" fill="#633806">25</text>
<text class="th" x="236" y="386" text-anchor="middle" dominant-baseline="central" fill="#633806">30</text>
<text class="th" x="284" y="386" text-anchor="middle" dominant-baseline="central" fill="#633806">40</text>
<text class="th" x="332" y="386" text-anchor="middle" dominant-baseline="central" fill="#633806">50</text>
<text class="th" x="380" y="386" text-anchor="middle" dominant-baseline="central" fill="#633806">60</text>
<text class="th" x="428" y="386" text-anchor="middle" dominant-baseline="central" fill="#633806">70</text>
<text class="th" x="476" y="386" text-anchor="middle" dominant-baseline="central" fill="#633806">80</text>
<text class="th" x="548" y="386" text-anchor="middle" dominant-baseline="central" fill="#633806">90</text>

<!-- 25 coral highlight -->
<rect x="164" y="366" width="48" height="40" rx="0" fill="#FAECE7" stroke="#D85A30" stroke-width="0.8"/>
<text class="th" x="188" y="386" text-anchor="middle" dominant-baseline="central" fill="#712B13">25</text>

<!-- Position numbers below -->
<text class="ts" x="92" y="422" text-anchor="middle" fill="#B4B2A9">1</text>
<text class="ts" x="140" y="422" text-anchor="middle" fill="#B4B2A9">2</text>
<text class="ts" x="188" y="422" text-anchor="middle" fill="#B4B2A9">3</text>
<text class="ts" x="236" y="422" text-anchor="middle" fill="#B4B2A9">4</text>
<text class="ts" x="284" y="422" text-anchor="middle" fill="#B4B2A9">5</text>
<text class="ts" x="332" y="422" text-anchor="middle" fill="#B4B2A9">6</text>
<text class="ts" x="380" y="422" text-anchor="middle" fill="#B4B2A9">7</text>
<text class="ts" x="428" y="422" text-anchor="middle" fill="#B4B2A9">8</text>
<text class="ts" x="476" y="422" text-anchor="middle" fill="#B4B2A9">9</text>
<text class="ts" x="548" y="422" text-anchor="middle" fill="#B4B2A9">10</text>

<text class="ts" x="620" y="386" text-anchor="start" fill="#888780">4r+2</text>
<text class="ts" x="620" y="402" text-anchor="start" fill="#888780">= 10</text>

<!-- ═══════════ Divider ═══════════ -->
<line x1="40" y1="448" x2="640" y2="448" stroke="#B4B2A9" stroke-width="0.5" stroke-dasharray="3 3" opacity="0.3"/>

<!-- ═══════════════════════════════════════════ -->
<!-- STEP 3: DISTRIBUTION                        -->
<!-- ═══════════════════════════════════════════ -->
<text class="th" x="40" y="476" fill="#185FA5">③ Distribucija niza u 3 čvora + 2 elementa za nadređeni</text>
<text class="ts" x="40" y="496" fill="#888780">Niz se deli na 5 delova: Ce, ↑C, Cf, ↑C, novi čvor Cg</text>

<!-- Repeat the array for clarity -->
<rect x="68" y="522" width="528" height="40" rx="6" fill="#F1EFE8" stroke="#B4B2A9" stroke-width="0.5"/>
<line x1="116" y1="522" x2="116" y2="562" stroke="#B4B2A9" stroke-width="0.5"/>
<line x1="164" y1="522" x2="164" y2="562" stroke="#B4B2A9" stroke-width="0.5"/>
<line x1="212" y1="522" x2="212" y2="562" stroke="#B4B2A9" stroke-width="0.5"/>
<line x1="260" y1="522" x2="260" y2="562" stroke="#B4B2A9" stroke-width="0.5"/>
<line x1="308" y1="522" x2="308" y2="562" stroke="#B4B2A9" stroke-width="0.5"/>
<line x1="356" y1="522" x2="356" y2="562" stroke="#B4B2A9" stroke-width="0.5"/>
<line x1="404" y1="522" x2="404" y2="562" stroke="#B4B2A9" stroke-width="0.5"/>
<line x1="452" y1="522" x2="452" y2="562" stroke="#B4B2A9" stroke-width="0.5"/>
<line x1="500" y1="522" x2="500" y2="562" stroke="#B4B2A9" stroke-width="0.5"/>
<text class="th" x="92" y="542" text-anchor="middle" dominant-baseline="central" fill="#444441">10</text>
<text class="th" x="140" y="542" text-anchor="middle" dominant-baseline="central" fill="#444441">20</text>
<text class="th" x="188" y="542" text-anchor="middle" dominant-baseline="central" fill="#444441">25</text>
<text class="th" x="236" y="542" text-anchor="middle" dominant-baseline="central" fill="#444441">30</text>
<text class="th" x="284" y="542" text-anchor="middle" dominant-baseline="central" fill="#444441">40</text>
<text class="th" x="332" y="542" text-anchor="middle" dominant-baseline="central" fill="#444441">50</text>
<text class="th" x="380" y="542" text-anchor="middle" dominant-baseline="central" fill="#444441">60</text>
<text class="th" x="428" y="542" text-anchor="middle" dominant-baseline="central" fill="#444441">70</text>
<text class="th" x="476" y="542" text-anchor="middle" dominant-baseline="central" fill="#444441">80</text>
<text class="th" x="548" y="542" text-anchor="middle" dominant-baseline="central" fill="#444441">90</text>

<!-- Color overlays for distribution -->
<rect x="68" y="522" width="144" height="40" rx="0" fill="#E1F5EE" stroke="none" opacity="0.3"/>
<rect x="212" y="522" width="48" height="40" rx="0" fill="#FAEEDA" stroke="none" opacity="0.4"/>
<rect x="260" y="522" width="144" height="40" rx="0" fill="#EEEDFE" stroke="none" opacity="0.3"/>
<rect x="404" y="522" width="48" height="40" rx="0" fill="#FAEEDA" stroke="none" opacity="0.4"/>
<rect x="452" y="522" width="144" height="40" rx="0" fill="#E6F1FB" stroke="none" opacity="0.3"/>

<!-- Distribution brackets below -->
<!-- Ce: first 3 -->
<line x1="68" y1="576" x2="212" y2="576" stroke="#0F6E56" stroke-width="1"/>
<line x1="68" y1="572" x2="68" y2="580" stroke="#0F6E56" stroke-width="1"/>
<line x1="212" y1="572" x2="212" y2="580" stroke="#0F6E56" stroke-width="1"/>
<text class="ts" x="140" y="596" text-anchor="middle" fill="#085041">prvih 3 → Ce</text>
<text class="ts" x="140" y="612" text-anchor="middle" fill="#888780">⌊(4r+2)/3⌋ = ⌊10/3⌋</text>

<!-- 4th → C -->
<line x1="212" y1="576" x2="260" y2="576" stroke="#854F0B" stroke-width="1"/>
<line x1="212" y1="572" x2="212" y2="580" stroke="#854F0B" stroke-width="1"/>
<line x1="260" y1="572" x2="260" y2="580" stroke="#854F0B" stroke-width="1"/>
<text class="ts" x="236" y="596" text-anchor="middle" fill="#854F0B">↑ C</text>

<!-- Cf: next 3 -->
<line x1="260" y1="576" x2="404" y2="576" stroke="#534AB7" stroke-width="1"/>
<line x1="260" y1="572" x2="260" y2="580" stroke="#534AB7" stroke-width="1"/>
<line x1="404" y1="572" x2="404" y2="580" stroke="#534AB7" stroke-width="1"/>
<text class="ts" x="332" y="596" text-anchor="middle" fill="#3C3489">narednih 3 → Cf</text>
<text class="ts" x="332" y="612" text-anchor="middle" fill="#888780">⌊(4r+1)/3⌋ = ⌊9/3⌋</text>

<!-- 8th → C -->
<line x1="404" y1="576" x2="452" y2="576" stroke="#854F0B" stroke-width="1"/>
<line x1="404" y1="572" x2="404" y2="580" stroke="#854F0B" stroke-width="1"/>
<line x1="452" y1="572" x2="452" y2="580" stroke="#854F0B" stroke-width="1"/>
<text class="ts" x="428" y="596" text-anchor="middle" fill="#854F0B">↑ C</text>

<!-- Cg: last 2 -->
<line x1="452" y1="576" x2="596" y2="576" stroke="#185FA5" stroke-width="1"/>
<line x1="452" y1="572" x2="452" y2="580" stroke="#185FA5" stroke-width="1"/>
<line x1="596" y1="572" x2="596" y2="580" stroke="#185FA5" stroke-width="1"/>
<text class="ts" x="524" y="596" text-anchor="middle" fill="#0C447C">poslednjih 2 → Cg</text>
<text class="ts" x="524" y="612" text-anchor="middle" fill="#888780">⌊4r/3⌋ = ⌊8/3⌋</text>

<!-- Arrows from promoted elements -->
<path d="M236 522 L236 510" fill="none" stroke="#BA7517" stroke-width="1.5" marker-end="url(#arrow)"/>
<text class="ts" x="236" y="504" text-anchor="middle" fill="#854F0B">30 ↑</text>
<path d="M428 522 L428 510" fill="none" stroke="#BA7517" stroke-width="1.5" marker-end="url(#arrow)"/>
<text class="ts" x="428" y="504" text-anchor="middle" fill="#854F0B">70 ↑</text>

<!-- ═══════════ Divider ═══════════ -->
<line x1="40" y1="640" x2="640" y2="640" stroke="#B4B2A9" stroke-width="0.5" stroke-dasharray="3 3" opacity="0.3"/>

<!-- ═══════════════════════════════════════════ -->
<!-- STEP 4: FINAL STATE                         -->
<!-- ═══════════════════════════════════════════ -->
<text class="th" x="40" y="668" fill="#534AB7">④ Konačno stanje: elementi distribuirani u 3 čvora</text>

<!-- Parent C -->
<text class="ts" x="340" y="700" text-anchor="middle" fill="#5F5E5A">nadređeni čvor C</text>
<rect x="136" y="710" width="408" height="40" rx="6" fill="#F1EFE8" stroke="#B4B2A9" stroke-width="0.5"/>
<line x1="214" y1="710" x2="214" y2="750" stroke="#B4B2A9" stroke-width="0.5"/>
<line x1="292" y1="710" x2="292" y2="750" stroke="#B4B2A9" stroke-width="0.5"/>
<line x1="370" y1="710" x2="370" y2="750" stroke="#B4B2A9" stroke-width="0.5"/>
<line x1="448" y1="710" x2="448" y2="750" stroke="#B4B2A9" stroke-width="0.5"/>
<text class="th" x="175" y="730" text-anchor="middle" dominant-baseline="central" fill="#444441">...</text>
<text class="th" x="409" y="730" text-anchor="middle" dominant-baseline="central" fill="#444441">...</text>
<text class="th" x="487" y="730" text-anchor="middle" dominant-baseline="central" fill="#444441">...</text>
<!-- 30 and 70 amber -->
<rect x="214" y="710" width="78" height="40" rx="0" fill="#FAEEDA" stroke="#EF9F27" stroke-width="0.8"/>
<text class="th" x="253" y="730" text-anchor="middle" dominant-baseline="central" fill="#633806">30</text>
<rect x="292" y="710" width="78" height="40" rx="0" fill="#FAEEDA" stroke="#EF9F27" stroke-width="0.8"/>
<text class="th" x="331" y="730" text-anchor="middle" dominant-baseline="central" fill="#633806">70</text>
<text class="ts" x="292" y="702" text-anchor="middle" fill="#854F0B">novi elementi u C</text>

<!-- Edges to 3 children -->
<line x1="214" y1="750" x2="132" y2="810" stroke="#888780" stroke-width="0.5" marker-end="url(#arrow)"/>
<line x1="292" y1="750" x2="340" y2="810" stroke="#888780" stroke-width="0.5" marker-end="url(#arrow)"/>
<line x1="370" y1="750" x2="530" y2="810" stroke="#888780" stroke-width="0.5" marker-end="url(#arrow)"/>

<!-- Ce: [10|20|25] -->
<rect x="60" y="816" width="144" height="38" rx="6" fill="#EEEDFE" stroke="#AFA9EC" stroke-width="0.5"/>
<line x1="108" y1="816" x2="108" y2="854" stroke="#AFA9EC" stroke-width="0.5"/>
<line x1="156" y1="816" x2="156" y2="854" stroke="#AFA9EC" stroke-width="0.5"/>
<text class="th" x="84" y="835" text-anchor="middle" dominant-baseline="central" fill="#3C3489">10</text>
<text class="th" x="132" y="835" text-anchor="middle" dominant-baseline="central" fill="#3C3489">20</text>
<text class="th" x="180" y="835" text-anchor="middle" dominant-baseline="central" fill="#3C3489">25</text>
<text class="ts" x="132" y="872" text-anchor="middle" fill="#534AB7">Ce: m = 3 ≥ r ✓</text>

<!-- Cf: [40|50|60] -->
<rect x="268" y="816" width="144" height="38" rx="6" fill="#EEEDFE" stroke="#AFA9EC" stroke-width="0.5"/>
<line x1="316" y1="816" x2="316" y2="854" stroke="#AFA9EC" stroke-width="0.5"/>
<line x1="364" y1="816" x2="364" y2="854" stroke="#AFA9EC" stroke-width="0.5"/>
<text class="th" x="292" y="835" text-anchor="middle" dominant-baseline="central" fill="#3C3489">40</text>
<text class="th" x="340" y="835" text-anchor="middle" dominant-baseline="central" fill="#3C3489">50</text>
<text class="th" x="388" y="835" text-anchor="middle" dominant-baseline="central" fill="#3C3489">60</text>
<text class="ts" x="340" y="872" text-anchor="middle" fill="#534AB7">Cf: m = 3 ≥ r ✓</text>

<!-- Cg: [80|90] NEW -->
<rect x="480" y="816" width="96" height="38" rx="6" fill="#E6F1FB" stroke="#85B7EB" stroke-width="0.5"/>
<line x1="528" y1="816" x2="528" y2="854" stroke="#85B7EB" stroke-width="0.5"/>
<text class="th" x="504" y="835" text-anchor="middle" dominant-baseline="central" fill="#0C447C">80</text>
<text class="th" x="552" y="835" text-anchor="middle" dominant-baseline="central" fill="#0C447C">90</text>
<text class="ts" x="528" y="808" text-anchor="middle" fill="#185FA5">novi čvor</text>
<text class="ts" x="528" y="872" text-anchor="middle" fill="#185FA5">Cg: m = 2 = r ✓</text>

<!-- Verification -->
<text class="ts" x="340" y="910" text-anchor="middle" fill="#888780">{10,20,25} &lt; 30 &lt; {40,50,60} &lt; 70 &lt; {80,90}     ✓  uređenost očuvana</text>

<!-- ═══════════ Divider ═══════════ -->
<line x1="40" y1="940" x2="640" y2="940" stroke="#B4B2A9" stroke-width="0.5" stroke-dasharray="3 3" opacity="0.3"/>

<!-- ═══════════════════════════════════════════ -->
<!-- COMPARISON                                  -->
<!-- ═══════════════════════════════════════════ -->
<text class="th" x="40" y="968" fill="#444441">Poređenje: 2 puna čvora → 3 ravnomerno popunjena čvora</text>

<!-- BEFORE bars -->
<text class="ts" x="146" y="998" text-anchor="middle" fill="#5F5E5A">pre (2 čvora)</text>

<rect x="88" y="1014" width="52" height="100" rx="4" fill="none" stroke="#B4B2A9" stroke-width="0.3" stroke-dasharray="2 2"/>
<rect x="88" y="1014" width="52" height="100" rx="4" fill="#E1F5EE" stroke="#5DCAA5" stroke-width="0.5"/>
<text class="ts" x="114" y="1070" text-anchor="middle" fill="#085041">4/4</text>
<text class="ts" x="114" y="1128" text-anchor="middle" fill="#085041">Ce</text>

<rect x="160" y="1014" width="52" height="100" rx="4" fill="none" stroke="#B4B2A9" stroke-width="0.3" stroke-dasharray="2 2"/>
<rect x="160" y="1014" width="52" height="100" rx="4" fill="#E1F5EE" stroke="#5DCAA5" stroke-width="0.5"/>
<text class="ts" x="186" y="1070" text-anchor="middle" fill="#085041">4/4</text>
<text class="ts" x="186" y="1128" text-anchor="middle" fill="#085041">Cf</text>

<text class="ts" x="114" y="1008" text-anchor="middle" fill="#085041">100%</text>
<text class="ts" x="186" y="1008" text-anchor="middle" fill="#085041">100%</text>

<!-- Arrow -->
<text class="th" x="266" y="1070" text-anchor="middle" dominant-baseline="central" fill="#BA7517">→</text>

<!-- AFTER bars -->
<text class="ts" x="432" y="998" text-anchor="middle" fill="#5F5E5A">posle (3 čvora)</text>

<rect x="340" y="1014" width="52" height="100" rx="4" fill="none" stroke="#B4B2A9" stroke-width="0.3" stroke-dasharray="2 2"/>
<rect x="340" y="1039" width="52" height="75" rx="4" fill="#EEEDFE" stroke="#AFA9EC" stroke-width="0.5"/>
<text class="ts" x="366" y="1082" text-anchor="middle" fill="#3C3489">3/4</text>
<text class="ts" x="366" y="1128" text-anchor="middle" fill="#3C3489">Ce</text>
<text class="ts" x="366" y="1033" text-anchor="middle" fill="#3C3489">75%</text>

<rect x="412" y="1014" width="52" height="100" rx="4" fill="none" stroke="#B4B2A9" stroke-width="0.3" stroke-dasharray="2 2"/>
<rect x="412" y="1039" width="52" height="75" rx="4" fill="#EEEDFE" stroke="#AFA9EC" stroke-width="0.5"/>
<text class="ts" x="438" y="1082" text-anchor="middle" fill="#3C3489">3/4</text>
<text class="ts" x="438" y="1128" text-anchor="middle" fill="#3C3489">Cf</text>
<text class="ts" x="438" y="1033" text-anchor="middle" fill="#3C3489">75%</text>

<rect x="484" y="1014" width="52" height="100" rx="4" fill="none" stroke="#B4B2A9" stroke-width="0.3" stroke-dasharray="2 2"/>
<rect x="484" y="1064" width="52" height="50" rx="4" fill="#E6F1FB" stroke="#85B7EB" stroke-width="0.5"/>
<text class="ts" x="510" y="1094" text-anchor="middle" fill="#0C447C">2/4</text>
<text class="ts" x="510" y="1128" text-anchor="middle" fill="#0C447C">Cg</text>
<text class="ts" x="510" y="1058" text-anchor="middle" fill="#0C447C">50%</text>

<text class="ts" x="146" y="1154" text-anchor="middle" fill="#888780">prosek: 100%</text>
<text class="ts" x="432" y="1154" text-anchor="middle" fill="#888780">prosek: 67%</text>

<!-- ═══════════ Divider ═══════════ -->
<line x1="40" y1="1180" x2="640" y2="1180" stroke="#B4B2A9" stroke-width="0.5" stroke-dasharray="3 3" opacity="0.3"/>

<!-- Key insight boxes -->
<rect x="40" y="1198" width="600" height="32" rx="6" fill="#FAEEDA" stroke="#EF9F27" stroke-width="0.5"/>
<text class="ts" x="340" y="1218" text-anchor="middle" fill="#633806">Umesto deljenja 1→2 (B-stablo), ovde se 2 puna čvora dele u 3 čvora.</text>

<rect x="40" y="1244" width="600" height="32" rx="6" fill="#E6F1FB" stroke="#85B7EB" stroke-width="0.5"/>
<text class="ts" x="340" y="1264" text-anchor="middle" fill="#0C447C">Svaki čvor nakon distribucije ima najmanje r = ⌊4r/3⌋ elemenata.</text>

</svg>