<svg width="680" viewBox="0 0 680 1440" xmlns="http://www.w3.org/2000/svg" style="background:#fff">
<defs>
  <marker id="arrow" viewBox="0 0 10 10" refX="8" refY="5" markerWidth="6" markerHeight="6" orient="auto-start-reverse">
    <path d="M2 1L8 5L2 9" fill="none" stroke="context-stroke" stroke-width="1.5" stroke-linecap="round" stroke-linejoin="round"/>
  </marker>
</defs>
<style>
  .th { font-family: 'Helvetica Neue', Arial, sans-serif; font-size: 14px; font-weight: 600; }
  .ts { font-family: 'Helvetica Neue', Arial, sans-serif; font-size: 12px; font-weight: 400; }
</style>

<!-- ═══════════════════════════════════════════ -->
<!-- STEP 1: BEFORE                              -->
<!-- ═══════════════════════════════════════════ -->
<text class="th" x="40" y="30" fill="#0F6E56">① Polazno stanje (r = 2, max = 2r = 4)</text>
<text class="ts" x="40" y="50" fill="#888780">Treba umetnuti ključ 25, ali Ce je pun. Desni sused Cf ima mesta.</text>

<!-- Parent C -->
<text class="ts" x="340" y="80" text-anchor="middle" fill="#5F5E5A">nadređeni čvor C</text>
<rect x="228" y="90" width="224" height="40" rx="6" fill="#F1EFE8" stroke="#B4B2A9" stroke-width="0.5"/>
<line x1="308" y1="90" x2="308" y2="130" stroke="#B4B2A9" stroke-width="0.5"/>
<line x1="372" y1="90" x2="372" y2="130" stroke="#B4B2A9" stroke-width="0.5"/>
<text class="th" x="268" y="110" text-anchor="middle" dominant-baseline="central" fill="#444441">...</text>
<text class="th" x="340" y="110" text-anchor="middle" dominant-baseline="central" fill="#444441">50</text>
<text class="th" x="404" y="110" text-anchor="middle" dominant-baseline="central" fill="#444441">...</text>

<!-- Edges -->
<line x1="308" y1="130" x2="180" y2="176" stroke="#888780" stroke-width="0.5" marker-end="url(#arrow)"/>
<line x1="372" y1="130" x2="468" y2="176" stroke="#888780" stroke-width="0.5" marker-end="url(#arrow)"/>

<!-- Ce: [10|20|30|40] FULL -->
<rect x="84" y="182" width="192" height="38" rx="6" fill="#E1F5EE" stroke="#5DCAA5" stroke-width="0.5"/>
<line x1="132" y1="182" x2="132" y2="220" stroke="#5DCAA5" stroke-width="0.5"/>
<line x1="180" y1="182" x2="180" y2="220" stroke="#5DCAA5" stroke-width="0.5"/>
<line x1="228" y1="182" x2="228" y2="220" stroke="#5DCAA5" stroke-width="0.5"/>
<text class="th" x="108" y="201" text-anchor="middle" dominant-baseline="central" fill="#085041">10</text>
<text class="th" x="156" y="201" text-anchor="middle" dominant-baseline="central" fill="#085041">20</text>
<text class="th" x="204" y="201" text-anchor="middle" dominant-baseline="central" fill="#085041">30</text>
<text class="th" x="252" y="201" text-anchor="middle" dominant-baseline="central" fill="#085041">40</text>
<text class="ts" x="180" y="236" text-anchor="middle" fill="#993C1D">Ce: m = 2r = 4 (pun!)</text>

<!-- New element 25 -->
<rect x="300" y="182" width="44" height="38" rx="6" fill="#FAECE7" stroke="#D85A30" stroke-width="0.5"/>
<text class="th" x="322" y="201" text-anchor="middle" dominant-baseline="central" fill="#712B13">25</text>
<text class="ts" x="322" y="174" text-anchor="middle" fill="#993C1D">novi ključ</text>
<line x1="298" y1="201" x2="280" y2="201" stroke="#D85A30" stroke-width="1.2" marker-end="url(#arrow)" stroke-dasharray="4 3"/>

<!-- Cf: [60|70] -->
<rect x="420" y="182" width="96" height="38" rx="6" fill="#E1F5EE" stroke="#5DCAA5" stroke-width="0.5"/>
<line x1="468" y1="182" x2="468" y2="220" stroke="#5DCAA5" stroke-width="0.5"/>
<text class="th" x="444" y="201" text-anchor="middle" dominant-baseline="central" fill="#085041">60</text>
<text class="th" x="492" y="201" text-anchor="middle" dominant-baseline="central" fill="#085041">70</text>
<text class="ts" x="468" y="236" text-anchor="middle" fill="#0F6E56">Cf: m = 2 &lt; 2r → ima mesta</text>

<!-- ═══════════ Divider ═══════════ -->
<line x1="40" y1="268" x2="640" y2="268" stroke="#B4B2A9" stroke-width="0.5" stroke-dasharray="3 3" opacity="0.3"/>

<!-- ═══════════════════════════════════════════ -->
<!-- STEP 2: SORTED ARRAY                        -->
<!-- ═══════════════════════════════════════════ -->
<text class="th" x="40" y="296" fill="#854F0B">② U memoriji: sortirani niz od Ce + novi element (2r + 1 = 5)</text>

<!-- Sorted array -->
<rect x="148" y="322" width="240" height="40" rx="6" fill="#FAEEDA" stroke="#EF9F27" stroke-width="0.5"/>
<line x1="196" y1="322" x2="196" y2="362" stroke="#EF9F27" stroke-width="0.5"/>
<line x1="244" y1="322" x2="244" y2="362" stroke="#EF9F27" stroke-width="0.5"/>
<line x1="292" y1="322" x2="292" y2="362" stroke="#EF9F27" stroke-width="0.5"/>
<line x1="340" y1="322" x2="340" y2="362" stroke="#EF9F27" stroke-width="0.5"/>
<text class="th" x="172" y="342" text-anchor="middle" dominant-baseline="central" fill="#633806">10</text>
<text class="th" x="220" y="342" text-anchor="middle" dominant-baseline="central" fill="#633806">20</text>
<text class="th" x="316" y="342" text-anchor="middle" dominant-baseline="central" fill="#633806">30</text>
<text class="th" x="364" y="342" text-anchor="middle" dominant-baseline="central" fill="#633806">40</text>

<!-- 25 coral highlight -->
<rect x="244" y="322" width="48" height="40" rx="0" fill="#FAECE7" stroke="#D85A30" stroke-width="0.8"/>
<text class="th" x="268" y="342" text-anchor="middle" dominant-baseline="central" fill="#712B13">25</text>

<text class="ts" x="268" y="382" text-anchor="middle" fill="#854F0B">sortirani niz u memoriji: Ce + novi ključ 25</text>

<!-- ═══════════ Divider ═══════════ -->
<line x1="40" y1="408" x2="640" y2="408" stroke="#B4B2A9" stroke-width="0.5" stroke-dasharray="3 3" opacity="0.3"/>

<!-- ═══════════════════════════════════════════ -->
<!-- STEP 3: COMBINED + REDISTRIBUTION           -->
<!-- ═══════════════════════════════════════════ -->
<text class="th" x="40" y="436" fill="#185FA5">③ Spoj sve u jedan niz, pa preraspodeli</text>
<text class="ts" x="40" y="456" fill="#888780">Ukupni niz = sortirani niz (②) + nadređeni element (50) + Cf</text>

<!-- Combined array [10|20|25|30|40|50|60|70] -->
<rect x="52" y="486" width="384" height="40" rx="6" fill="#F1EFE8" stroke="#B4B2A9" stroke-width="0.5"/>
<line x1="100" y1="486" x2="100" y2="526" stroke="#B4B2A9" stroke-width="0.5"/>
<line x1="148" y1="486" x2="148" y2="526" stroke="#B4B2A9" stroke-width="0.5"/>
<line x1="196" y1="486" x2="196" y2="526" stroke="#B4B2A9" stroke-width="0.5"/>
<line x1="244" y1="486" x2="244" y2="526" stroke="#B4B2A9" stroke-width="0.5"/>
<line x1="292" y1="486" x2="292" y2="526" stroke="#B4B2A9" stroke-width="0.5"/>
<line x1="340" y1="486" x2="340" y2="526" stroke="#B4B2A9" stroke-width="0.5"/>
<line x1="388" y1="486" x2="388" y2="526" stroke="#B4B2A9" stroke-width="0.5"/>
<text class="th" x="76" y="506" text-anchor="middle" dominant-baseline="central" fill="#444441">10</text>
<text class="th" x="124" y="506" text-anchor="middle" dominant-baseline="central" fill="#444441">20</text>
<text class="th" x="172" y="506" text-anchor="middle" dominant-baseline="central" fill="#444441">25</text>
<text class="th" x="220" y="506" text-anchor="middle" dominant-baseline="central" fill="#444441">30</text>
<text class="th" x="268" y="506" text-anchor="middle" dominant-baseline="central" fill="#444441">40</text>
<text class="th" x="316" y="506" text-anchor="middle" dominant-baseline="central" fill="#444441">50</text>
<text class="th" x="364" y="506" text-anchor="middle" dominant-baseline="central" fill="#444441">60</text>
<text class="th" x="412" y="506" text-anchor="middle" dominant-baseline="central" fill="#444441">70</text>

<text class="ts" x="460" y="506" text-anchor="start" fill="#888780">ukupno 8 elem.</text>

<!-- Color overlays for source -->
<rect x="52" y="486" width="240" height="40" rx="0" fill="#E1F5EE" stroke="none" opacity="0.25"/>
<rect x="292" y="486" width="48" height="40" rx="0" fill="#FAEEDA" stroke="none" opacity="0.35"/>
<rect x="340" y="486" width="96" height="40" rx="0" fill="#E1F5EE" stroke="none" opacity="0.25"/>

<!-- Source labels above -->
<text class="ts" x="172" y="478" text-anchor="middle" fill="#0F6E56">iz sortiranig niza (②)</text>
<text class="ts" x="316" y="478" text-anchor="middle" fill="#854F0B">iz C</text>
<text class="ts" x="388" y="478" text-anchor="middle" fill="#0F6E56">iz Cf</text>

<!-- Split brackets below - with generous spacing -->
<!-- Ce gets first 4 -->
<line x1="52" y1="540" x2="244" y2="540" stroke="#0F6E56" stroke-width="1"/>
<line x1="52" y1="536" x2="52" y2="544" stroke="#0F6E56" stroke-width="1"/>
<line x1="244" y1="536" x2="244" y2="544" stroke="#0F6E56" stroke-width="1"/>
<text class="ts" x="148" y="558" text-anchor="middle" fill="#085041">prvih 4 elemenata → Ce</text>

<!-- Middle goes to parent -->
<line x1="244" y1="540" x2="292" y2="540" stroke="#854F0B" stroke-width="1"/>
<line x1="244" y1="536" x2="244" y2="544" stroke="#854F0B" stroke-width="1"/>
<line x1="292" y1="536" x2="292" y2="544" stroke="#854F0B" stroke-width="1"/>
<text class="ts" x="268" y="558" text-anchor="middle" fill="#854F0B">→ C</text>

<!-- Cf gets last 3 -->
<line x1="292" y1="540" x2="436" y2="540" stroke="#534AB7" stroke-width="1"/>
<line x1="292" y1="536" x2="292" y2="544" stroke="#534AB7" stroke-width="1"/>
<line x1="436" y1="536" x2="436" y2="544" stroke="#534AB7" stroke-width="1"/>
<text class="ts" x="364" y="558" text-anchor="middle" fill="#534AB7">poslednjih 3 → Cf</text>

<!-- Formula -->
<text class="ts" x="40" y="590" fill="#888780">Formula:  Ce dobija ⌊(2r+2+mf)/2⌋ = ⌊8/2⌋ = 4      Srednji (5.) → C      Cf dobija ⌊(2r+1+mf)/2⌋ = ⌊7/2⌋ = 3</text>

<!-- ═══════════ Divider ═══════════ -->
<line x1="40" y1="616" x2="640" y2="616" stroke="#B4B2A9" stroke-width="0.5" stroke-dasharray="3 3" opacity="0.3"/>

<!-- ═══════════════════════════════════════════ -->
<!-- STEP 4: FINAL STATE                         -->
<!-- ═══════════════════════════════════════════ -->
<text class="th" x="40" y="644" fill="#534AB7">④ Konačno stanje: elementi ravnomerno raspodeljeni</text>

<!-- Parent C with 40 -->
<text class="ts" x="340" y="674" text-anchor="middle" fill="#5F5E5A">nadređeni čvor C</text>
<rect x="228" y="684" width="224" height="40" rx="6" fill="#F1EFE8" stroke="#B4B2A9" stroke-width="0.5"/>
<line x1="308" y1="684" x2="308" y2="724" stroke="#B4B2A9" stroke-width="0.5"/>
<line x1="372" y1="684" x2="372" y2="724" stroke="#B4B2A9" stroke-width="0.5"/>
<text class="th" x="268" y="704" text-anchor="middle" dominant-baseline="central" fill="#444441">...</text>
<text class="th" x="404" y="704" text-anchor="middle" dominant-baseline="central" fill="#444441">...</text>
<!-- 40 amber -->
<rect x="308" y="684" width="64" height="40" rx="0" fill="#FAEEDA" stroke="#EF9F27" stroke-width="0.8"/>
<text class="th" x="340" y="704" text-anchor="middle" dominant-baseline="central" fill="#633806">40</text>
<text class="ts" x="504" y="704" text-anchor="start" fill="#854F0B">bio 50, sada 40</text>

<!-- Edges -->
<line x1="308" y1="724" x2="180" y2="770" stroke="#888780" stroke-width="0.5" marker-end="url(#arrow)"/>
<line x1="372" y1="724" x2="468" y2="770" stroke="#888780" stroke-width="0.5" marker-end="url(#arrow)"/>

<!-- Ce: [10|20|25|30] -->
<rect x="84" y="776" width="192" height="38" rx="6" fill="#EEEDFE" stroke="#AFA9EC" stroke-width="0.5"/>
<line x1="132" y1="776" x2="132" y2="814" stroke="#AFA9EC" stroke-width="0.5"/>
<line x1="180" y1="776" x2="180" y2="814" stroke="#AFA9EC" stroke-width="0.5"/>
<line x1="228" y1="776" x2="228" y2="814" stroke="#AFA9EC" stroke-width="0.5"/>
<text class="th" x="108" y="795" text-anchor="middle" dominant-baseline="central" fill="#3C3489">10</text>
<text class="th" x="156" y="795" text-anchor="middle" dominant-baseline="central" fill="#3C3489">20</text>
<text class="th" x="204" y="795" text-anchor="middle" dominant-baseline="central" fill="#3C3489">25</text>
<text class="th" x="252" y="795" text-anchor="middle" dominant-baseline="central" fill="#3C3489">30</text>
<text class="ts" x="180" y="832" text-anchor="middle" fill="#534AB7">Ce: m = 4 = 2r ✓</text>

<!-- Cf: [50|60|70] -->
<rect x="420" y="776" width="144" height="38" rx="6" fill="#EEEDFE" stroke="#AFA9EC" stroke-width="0.5"/>
<line x1="468" y1="776" x2="468" y2="814" stroke="#AFA9EC" stroke-width="0.5"/>
<line x1="516" y1="776" x2="516" y2="814" stroke="#AFA9EC" stroke-width="0.5"/>
<text class="th" x="444" y="795" text-anchor="middle" dominant-baseline="central" fill="#3C3489">50</text>
<text class="th" x="492" y="795" text-anchor="middle" dominant-baseline="central" fill="#3C3489">60</text>
<text class="th" x="540" y="795" text-anchor="middle" dominant-baseline="central" fill="#3C3489">70</text>
<text class="ts" x="492" y="832" text-anchor="middle" fill="#534AB7">Cf: m = 3 ≥ r ✓</text>

<!-- Verification -->
<text class="ts" x="340" y="868" text-anchor="middle" fill="#888780">{10, 20, 25, 30}  &lt;  40  &lt;  {50, 60, 70}     ✓  uređenost očuvana</text>

<text class="ts" x="340" y="890" text-anchor="middle" fill="#888780">me = 4  ≥  mf = 3     ✓  prelivanje favorizuje Ce</text>

<!-- ═══════════ Divider ═══════════ -->
<line x1="40" y1="918" x2="640" y2="918" stroke="#B4B2A9" stroke-width="0.5" stroke-dasharray="3 3" opacity="0.3"/>

<!-- ═══════════════════════════════════════════ -->
<!-- COMPARISON                                  -->
<!-- ═══════════════════════════════════════════ -->
<text class="th" x="40" y="948" fill="#444441">Poređenje popunjenosti: pre i posle</text>

<!-- BEFORE bars -->
<text class="ts" x="150" y="978" text-anchor="middle" fill="#5F5E5A">pre umetanja</text>

<!-- Ce bar -->
<rect x="88" y="994" width="52" height="120" rx="4" fill="none" stroke="#B4B2A9" stroke-width="0.3" stroke-dasharray="2 2"/>
<rect x="88" y="994" width="52" height="120" rx="4" fill="#E1F5EE" stroke="#5DCAA5" stroke-width="0.5"/>
<text class="ts" x="114" y="1060" text-anchor="middle" fill="#085041">4/4</text>
<text class="ts" x="114" y="1130" text-anchor="middle" fill="#085041">Ce</text>

<!-- Cf bar -->
<rect x="160" y="994" width="52" height="120" rx="4" fill="none" stroke="#B4B2A9" stroke-width="0.3" stroke-dasharray="2 2"/>
<rect x="160" y="1054" width="52" height="60" rx="4" fill="#E1F5EE" stroke="#5DCAA5" stroke-width="0.5"/>
<text class="ts" x="186" y="1090" text-anchor="middle" fill="#085041">2/4</text>
<text class="ts" x="186" y="1130" text-anchor="middle" fill="#085041">Cf</text>

<text class="ts" x="150" y="1154" text-anchor="middle" fill="#888780">prosek: 75%</text>

<!-- Arrow -->
<text class="th" x="280" y="1060" text-anchor="middle" dominant-baseline="central" fill="#BA7517">→</text>

<!-- AFTER bars -->
<text class="ts" x="420" y="978" text-anchor="middle" fill="#5F5E5A">posle prelivanja</text>

<!-- Ce bar -->
<rect x="358" y="994" width="52" height="120" rx="4" fill="none" stroke="#B4B2A9" stroke-width="0.3" stroke-dasharray="2 2"/>
<rect x="358" y="994" width="52" height="120" rx="4" fill="#EEEDFE" stroke="#AFA9EC" stroke-width="0.5"/>
<text class="ts" x="384" y="1060" text-anchor="middle" fill="#3C3489">4/4</text>
<text class="ts" x="384" y="1130" text-anchor="middle" fill="#3C3489">Ce</text>

<!-- Cf bar -->
<rect x="430" y="994" width="52" height="120" rx="4" fill="none" stroke="#B4B2A9" stroke-width="0.3" stroke-dasharray="2 2"/>
<rect x="430" y="1024" width="52" height="90" rx="4" fill="#EEEDFE" stroke="#AFA9EC" stroke-width="0.5"/>
<text class="ts" x="456" y="1075" text-anchor="middle" fill="#3C3489">3/4</text>
<text class="ts" x="456" y="1130" text-anchor="middle" fill="#3C3489">Cf</text>

<text class="ts" x="420" y="1154" text-anchor="middle" fill="#888780">prosek: 87.5%</text>

<!-- Percentage labels on bars -->
<text class="ts" x="114" y="988" text-anchor="middle" fill="#085041">100%</text>
<text class="ts" x="186" y="1048" text-anchor="middle" fill="#085041">50%</text>
<text class="ts" x="384" y="988" text-anchor="middle" fill="#3C3489">100%</text>
<text class="ts" x="456" y="1018" text-anchor="middle" fill="#3C3489">75%</text>

<!-- ═══════════ Divider ═══════════ -->
<line x1="40" y1="1180" x2="640" y2="1180" stroke="#B4B2A9" stroke-width="0.5" stroke-dasharray="3 3" opacity="0.3"/>

<!-- ═══════════════════════════════════════════ -->
<!-- KEY INSIGHTS                                -->
<!-- ═══════════════════════════════════════════ -->

<!-- Insight box 1 -->
<rect x="40" y="1200" width="600" height="36" rx="6" fill="#FAEEDA" stroke="#EF9F27" stroke-width="0.5"/>
<text class="ts" x="340" y="1222" text-anchor="middle" fill="#633806">Prelivanje favorizuje popunjenost ≥ 75%, za razliku od deljenja u B-stablu (~50%).</text>

<!-- Insight box 2 -->
<rect x="40" y="1252" width="600" height="36" rx="6" fill="#FCEBEB" stroke="#E24B4A" stroke-width="0.5"/>
<text class="ts" x="340" y="1274" text-anchor="middle" fill="#791F1F">Ako su oba suseda kompletna (m = 2r), prelivanje nije moguće → dolazi do deljenja čvora.</text>

<!-- Legend -->
<rect x="108" y="1316" width="14" height="14" rx="2" fill="#FAECE7" stroke="#D85A30" stroke-width="0.5"/>
<text class="ts" x="130" y="1328" fill="#712B13">novi element</text>

<rect x="268" y="1316" width="14" height="14" rx="2" fill="#FAEEDA" stroke="#EF9F27" stroke-width="0.5"/>
<text class="ts" x="290" y="1328" fill="#633806">element u pokretu</text>

<rect x="440" y="1316" width="14" height="14" rx="2" fill="#EEEDFE" stroke="#AFA9EC" stroke-width="0.5"/>
<text class="ts" x="462" y="1328" fill="#3C3489">konačna pozicija</text>

<!-- Final formula -->
<text class="ts" x="40" y="1370" fill="#888780">Ce dobija: ⌊(2r + 2 + mf) / 2⌋ elemenata</text>
<text class="ts" x="40" y="1390" fill="#888780">Srednji element → nadređeni čvor C</text>
<text class="ts" x="40" y="1410" fill="#888780">Cf dobija: ⌊(2r + 1 + mf) / 2⌋ elemenata          Uvek važi: me ≥ mf</text>

</svg>